# xmcd CD database file
#
# Track frame offsets:
#	150
#	14580
#	28706
#	45294
#	62409
#	76369
#	94488
#	110522
#	125544
#	137245
#	147302
#	161413
#	174025
#	190337
#	203645
#	219252
#	222391
#	223205
#	235109
#	249235
#	264952
#	274378
#	287867
#	300904
#
# Disc length: 4030 seconds
#
# Revision: 0
# Processed by: cddbd v1.5.2PL0 Copyright (c) Steve Scherf et al.
# Submitted via: CDex 1.73
#
DISCID=5c0fbc18
DTITLE=Billie Holiday - LADY SINGS THE BLUES
DYEAR=1956
DGENRE=Blues
TTITLE0=TRAV'LIN' LIGHT
TTITLE1=I MUST HAVE THAT MAN!
TTITLE2=SOME OTHER SPRING
TTITLE3=LADY SINGS THE BLUES
TTITLE4=STRANGE FRUIT
TTITLE5=GOD BLESS THE CHILD
TTITLE6=GOOD MORNING, HEARTACHE
TTITLE7=NO GOOD MAN
TTITLE8=LOVE ME OR LEAVE ME
TTITLE9=TOO MARVELOUS FOR WORDS
TTITLE10=WILLOW WEEP FOR ME
TTITLE11=I THOUGHT ABOUT YOU
TTITLE12=P.S. I LOVE YOU
TTITLE13=SOFTLY
TTITLE14=STORMY BLUES
TTITLE15=Announcement by Johnny Mercer
TTITLE16=LADY BE GOOD
TTITLE17=NICE WORK IF YOU CAN GET IT
TTITLE18=WILLOW, WEEP FOR ME
TTITLE19=MY MAN
TTITLE20=LOVER, COME BACK TO ME
TTITLE21=LADY SINGS THE BLUES
TTITLE22=WHAT A LITTLE MOONLIGHT CAN DO
TTITLE23=LADY BE GOOD
EXTD=YEAR: 1956
EXTT0=
EXTT1=
EXTT2=
EXTT3=
EXTT4=
EXTT5=
EXTT6=
EXTT7=
EXTT8=
EXTT9=
EXTT10=
EXTT11=
EXTT12=
EXTT13=
EXTT14=
EXTT15=
EXTT16=
EXTT17=
EXTT18=
EXTT19=
EXTT20=
EXTT21=
EXTT22=
EXTT23=
PLAYORDER=
